<svg version="1.1" id="Layer_1" xmlns="http://www.w3.org/2000/svg" xmlns:xlink="http://www.w3.org/1999/xlink" x="0px" y="0px"
	 width="100%" viewBox="0 0 4096 4096" enable-background="new 0 0 4096 4096" xml:space="preserve">
<path fill="#000000" opacity="1.000000" stroke="none" 
	d="
M2.000000,1536.000000 
	C2.000000,1024.000000 2.000000,513.000000 2.000000,2.000000 
	C1367.333374,2.000000 2732.666748,2.000000 4098.000000,2.000000 
	C4098.000000,1367.333374 4098.000000,2732.666748 4098.000000,4098.000000 
	C2732.666748,4098.000000 1367.333374,4098.000000 2.000001,4098.000000 
	C2.000000,3244.333252 2.000000,2390.666748 2.000000,1536.000000 
M2163.248535,326.229156 
	C2124.592529,360.615784 2085.936279,395.002441 2047.922363,428.817719 
	C2017.719482,401.144928 1987.868652,373.166107 1957.336426,345.951660 
	C1894.415894,289.867981 1827.858765,238.510773 1756.502319,193.503769 
	C1700.958496,158.470444 1643.157959,127.949860 1581.533081,104.882652 
	C1534.638062,87.329132 1486.496582,74.767212 1436.591797,70.680923 
	C1405.466431,68.132339 1374.212280,68.876839 1343.066895,73.514221 
	C1271.906250,84.109642 1212.330933,116.150398 1163.147827,168.282776 
	C1133.341309,199.876663 1111.098877,236.277481 1093.784912,275.903961 
	C1075.991699,316.627380 1064.150391,359.134308 1056.542969,402.791443 
	C1048.553223,448.643097 1044.806396,494.924194 1044.281006,541.483582 
	C1043.879028,577.085999 1045.198364,612.615173 1047.723267,648.111694 
	C1048.547119,659.695618 1049.148926,671.321655 1050.636963,682.826904 
	C1054.760376,714.706726 1058.555664,746.657043 1063.852661,778.350098 
	C1070.907104,820.559631 1078.907104,862.621643 1087.188599,904.611389 
	C1091.805908,928.022461 1097.817627,951.158630 1103.297363,974.835083 
	C1082.583252,981.323425 1061.958984,987.579346 1041.468140,994.245667 
	C1001.971008,1007.095337 962.022522,1018.792114 923.241028,1033.543091 
	C882.596619,1049.002686 842.685486,1066.587158 803.216248,1084.887085 
	C759.139648,1105.323120 716.662109,1128.955933 675.836304,1155.398804 
	C623.188538,1189.498779 573.714600,1227.436768 530.790161,1273.574219 
	C496.729950,1310.183960 468.139618,1350.324219 448.147980,1396.278320 
	C425.647369,1447.999512 417.440552,1502.023071 424.528412,1557.972534 
	C430.103241,1601.978516 444.779144,1643.100464 466.865936,1681.617310 
	C495.836639,1732.138794 534.060181,1774.759033 577.832458,1812.735596 
	C636.003540,1863.204224 700.951904,1903.363525 769.283936,1938.282349 
	C815.788391,1962.046753 863.708130,1982.675537 912.411987,2001.531860 
	C971.642273,2024.463867 1031.496582,2045.433594 1093.170410,2060.906006 
	C1096.624390,2061.772461 1099.947388,2063.161621 1103.324097,2064.305176 
	C1099.094116,2082.223145 1094.927002,2099.296875 1091.043945,2116.434570 
	C1080.187988,2164.347168 1070.378052,2212.468506 1063.695557,2261.163818 
	C1060.045532,2287.761475 1056.344360,2314.374512 1053.711548,2341.083496 
	C1050.654785,2372.090576 1047.609131,2403.175781 1046.651001,2434.291504 
	C1045.669434,2466.160156 1046.590942,2498.132080 1047.868042,2530.011230 
	C1048.822754,2553.841064 1051.069458,2577.664062 1053.796021,2601.368652 
	C1058.933228,2646.033691 1068.703979,2689.723633 1083.639160,2732.195312 
	C1105.380737,2794.022217 1137.045776,2849.466797 1186.811035,2893.387695 
	C1207.924194,2912.020752 1231.354980,2927.147705 1256.607666,2939.322266 
	C1298.909912,2959.716309 1344.212402,2967.824219 1390.708618,2969.459229 
	C1410.271240,2970.146729 1429.963867,2969.272949 1449.509033,2967.873779 
	C1490.806763,2964.916992 1530.790649,2955.162842 1569.941528,2942.073730 
	C1633.973755,2920.666504 1693.821899,2890.367920 1751.291016,2855.242676 
	C1796.754395,2827.455322 1840.365601,2796.955322 1882.452026,2764.269775 
	C1931.320312,2726.317139 1978.404907,2686.281982 2023.541504,2643.955078 
	C2032.663574,2635.400879 2041.939453,2627.010498 2051.377930,2618.329590 
	C2056.908691,2623.328613 2061.890625,2627.699463 2066.726318,2632.226318 
	C2083.242432,2647.687988 2099.369385,2663.583252 2116.256836,2678.626465 
	C2160.946533,2718.436523 2206.805908,2756.841064 2254.976318,2792.432373 
	C2320.959717,2841.185303 2389.845215,2885.152344 2464.537598,2919.491699 
	C2521.527344,2945.692627 2580.275879,2966.256104 2642.850830,2974.605957 
	C2682.635742,2979.914795 2722.344971,2980.298340 2762.020508,2974.279297 
	C2840.539795,2962.367188 2904.162598,2924.310791 2954.395264,2863.379639 
	C2988.077148,2822.523682 3010.592041,2775.764160 3026.628418,2725.525635 
	C3048.023193,2658.500488 3056.959717,2589.583740 3058.128662,2519.582275 
	C3058.667480,2487.338135 3057.191406,2455.052002 3056.255615,2422.795654 
	C3055.812744,2407.535645 3055.313721,2392.197754 3053.412109,2377.074707 
	C3048.077637,2334.652832 3042.474365,2292.252930 3036.095215,2249.977539 
	C3028.314941,2198.416748 3017.278320,2147.470215 3005.117920,2096.771729 
	C3003.280029,2089.109375 3001.531494,2081.425049 2999.718750,2073.651367 
	C3032.460938,2063.166504 3064.270996,2052.566406 3096.334717,2042.799072 
	C3164.184814,2022.130859 3230.256836,1996.945435 3294.149414,1966.128662 
	C3350.251953,1939.069214 3404.789307,1909.254150 3455.946045,1873.533569 
	C3498.328369,1843.940186 3538.146729,1811.425903 3573.343018,1773.343140 
	C3603.810303,1740.377319 3629.847168,1704.494873 3649.308105,1663.959595 
	C3675.424072,1609.562500 3685.310059,1552.495605 3678.453369,1492.418213 
	C3673.395264,1448.100708 3658.769287,1407.108887 3637.083740,1368.455444 
	C3614.126465,1327.535400 3584.649902,1291.775635 3550.921875,1259.250122 
	C3529.807373,1238.888062 3507.646484,1219.827393 3484.218750,1202.275146 
	C3420.819580,1154.776489 3352.057617,1116.315674 3279.797363,1084.297485 
	C3236.987061,1065.328125 3193.475830,1047.780273 3149.587158,1031.454468 
	C3113.500732,1018.031006 3076.435303,1007.220093 3039.716797,995.524841 
	C3026.799316,991.410461 3013.622803,988.108154 3000.105225,984.305908 
	C3000.468750,981.713623 3000.608643,979.448242 3001.121826,977.270996 
	C3003.713379,966.279724 3006.448242,955.322510 3009.048584,944.333374 
	C3021.357910,892.312134 3031.774902,839.904053 3039.549316,787.022583 
	C3047.656494,731.879822 3054.117188,676.519226 3055.605713,620.738342 
	C3056.937012,570.857605 3057.458008,520.999634 3052.481689,471.194916 
	C3047.581787,422.156921 3039.198242,373.914307 3024.479980,326.805878 
	C3008.667236,276.195496 2986.177002,229.076233 2953.056641,187.363693 
	C2924.713379,151.666840 2890.265137,123.452553 2849.740234,102.557350 
	C2812.843750,83.532944 2773.327881,73.667854 2732.300049,70.570915 
	C2690.053955,67.382065 2648.049072,70.238167 2606.441406,79.292236 
	C2536.631592,94.483253 2471.580566,121.835075 2408.980469,155.452835 
	C2351.422363,186.362854 2296.801270,221.971634 2244.820312,261.518829 
	C2217.577393,282.245209 2191.090332,303.964905 2163.248535,326.229156 
M515.658997,3635.000000 
	C515.658997,3757.187744 515.658997,3879.375488 515.658997,4001.630371 
	C548.168579,4001.630371 579.591919,4001.630371 611.849365,4001.630371 
	C611.849365,3897.451904 611.849365,3793.973633 611.849365,3690.450439 
	C613.577759,3690.086670 614.507629,3689.720459 615.437744,3689.719727 
	C666.092712,3689.685547 716.750305,3689.385742 767.401184,3689.838135 
	C784.847656,3689.993896 798.111450,3698.547363 807.674683,3713.533936 
	C842.569275,3768.217041 877.799316,3822.686279 912.911987,3877.230225 
	C931.640320,3906.323242 950.372131,3935.414062 969.132690,3964.486084 
	C979.596191,3980.700684 989.999451,3996.956055 1000.671570,4013.032715 
	C1006.095947,4021.204102 1013.312439,4025.909180 1023.905151,4025.805664 
	C1060.893066,4025.444092 1097.886841,4025.679932 1134.878296,4025.631592 
	C1137.290283,4025.628418 1139.701904,4025.141846 1143.809326,4024.696289 
	C1067.870239,3909.143311 992.845459,3794.981689 917.155762,3679.808105 
	C924.698425,3678.461914 931.162109,3677.354980 937.607483,3676.149902 
	C967.545105,3670.552490 996.193665,3661.175049 1022.813171,3646.225342 
	C1047.576538,3632.317871 1067.127563,3612.720703 1084.336670,3590.270020 
	C1124.497681,3537.878906 1142.971802,3479.173584 1137.969360,3413.184814 
	C1135.510254,3380.745361 1127.179321,3349.674561 1115.359131,3319.619629 
	C1088.950439,3252.471191 1042.126343,3206.655273 972.552490,3185.002197 
	C941.752869,3175.416504 909.963379,3173.598633 878.138306,3172.473145 
	C852.185120,3171.555176 826.187439,3171.683350 800.209900,3171.714355 
	C756.569214,3171.766602 712.928284,3172.034180 669.288452,3172.351807 
	C620.021118,3172.710449 570.754700,3173.214355 521.488464,3173.706787 
	C519.631226,3173.725342 517.779419,3174.280518 515.658997,3174.629639 
	C515.658997,3327.774902 515.658997,3480.387451 515.658997,3635.000000 
M1325.883545,3502.923096 
	C1310.336304,3522.191406 1297.758423,3543.239746 1287.603760,3565.816895 
	C1270.364990,3604.144531 1261.436279,3644.603760 1258.630493,3686.212158 
	C1256.350464,3720.023926 1256.399902,3753.956787 1261.772095,3787.703613 
	C1272.954102,3857.947266 1304.114868,3917.384277 1356.814819,3965.275391 
	C1414.282104,4017.499023 1482.900757,4041.223389 1559.617554,4043.606934 
	C1586.553101,4044.443604 1613.318359,4041.876465 1640.017700,4038.345459 
	C1698.873413,4030.561768 1751.181274,4007.920166 1796.588623,3969.652832 
	C1804.363770,3963.100098 1811.345581,3955.605957 1819.169434,3948.089600 
	C1802.479492,3925.767334 1786.628296,3904.566895 1771.066772,3883.753906 
	C1769.082886,3884.374268 1768.335938,3884.395752 1767.899780,3884.774658 
	C1743.395142,3906.066650 1716.590454,3923.847656 1687.193970,3937.665039 
	C1654.893799,3952.846680 1620.906006,3961.427002 1585.208496,3961.516357 
	C1549.214600,3961.606445 1514.894043,3953.177002 1481.856567,3938.880127 
	C1457.843872,3928.488770 1437.769531,3913.168457 1420.774536,3893.475342 
	C1394.369385,3862.877930 1377.822388,3827.304443 1367.874268,3788.469482 
	C1364.761108,3776.316406 1361.508301,3764.089111 1361.709473,3750.301025 
	C1526.619873,3750.301025 1691.076172,3750.301025 1856.338379,3750.301025 
	C1856.338379,3746.710205 1856.269043,3744.120117 1856.349976,3741.534912 
	C1856.766357,3728.256836 1857.494507,3714.981689 1857.582642,3701.702148 
	C1857.664062,3689.442627 1857.638672,3677.133057 1856.654297,3664.926758 
	C1854.910034,3643.297363 1848.701050,3622.552490 1842.442871,3601.901367 
	C1826.219116,3548.367188 1799.327393,3501.323975 1757.762329,3463.191650 
	C1711.978394,3421.188965 1657.615112,3398.356201 1596.299438,3392.572754 
	C1550.097168,3388.214600 1504.696289,3393.918945 1460.898804,3409.899902 
	C1408.365845,3429.067871 1362.571289,3458.172852 1325.883545,3502.923096 
M2176.943848,3487.847412 
	C2194.636963,3482.994873 2212.680664,3480.459473 2231.002441,3480.417725 
	C2240.946045,3480.395264 2250.906250,3481.019043 2260.833496,3481.716553 
	C2282.137207,3483.213623 2302.975586,3486.952148 2322.868652,3495.120605 
	C2354.402588,3508.069336 2375.567139,3530.156006 2384.377930,3563.598389 
	C2389.988281,3584.892334 2392.505127,3606.566650 2393.655762,3628.463623 
	C2394.352783,3641.722656 2395.185303,3654.979248 2395.572754,3668.248535 
	C2395.889404,3679.098633 2395.637207,3689.965332 2395.637207,3702.322266 
	C2390.729492,3699.950928 2386.013916,3698.750488 2382.720703,3695.904541 
	C2363.192627,3679.029053 2341.662842,3665.327393 2318.358154,3654.408691 
	C2285.741943,3639.127197 2251.316895,3631.434326 2215.342773,3630.302490 
	C2187.614258,3629.430420 2160.255615,3632.417236 2133.261963,3638.400879 
	C2089.862793,3648.021484 2052.370605,3668.065918 2023.022461,3702.174805 
	C1990.710327,3739.728516 1977.572876,3784.213379 1976.583496,3832.711670 
	C1976.281128,3847.533691 1978.036743,3862.564697 1980.425659,3877.243652 
	C1987.859985,3922.923340 2008.699707,3961.399658 2044.596802,3991.107666 
	C2086.727539,4025.974121 2136.115234,4041.154053 2189.967041,4043.614990 
	C2210.599609,4044.557617 2231.105713,4042.509521 2251.529297,4039.679199 
	C2281.245850,4035.561523 2308.785400,4026.048584 2333.787354,4008.887695 
	C2354.345215,3994.777344 2375.794678,3981.963135 2396.900146,3968.656250 
	C2398.699463,3967.521973 2400.888184,3967.005615 2403.907959,3965.797119 
	C2403.907959,3979.766113 2403.907959,3992.623535 2403.907959,4005.684082 
	C2434.066162,4005.684082 2463.494629,4005.684082 2493.668945,4005.684082 
	C2493.668945,4003.135254 2493.657959,4001.183838 2493.670654,3999.232666 
	C2493.892334,3964.920654 2494.335449,3930.608154 2494.299316,3896.296387 
	C2494.186523,3788.993164 2494.031494,3681.688965 2493.500244,3574.387207 
	C2493.431885,3560.528564 2492.084473,3546.489746 2489.548828,3532.865723 
	C2482.591553,3495.483643 2464.193604,3464.540527 2434.137207,3440.998047 
	C2412.336182,3423.921875 2387.429932,3413.031982 2360.709229,3406.277588 
	C2320.884033,3396.209961 2280.126709,3393.907227 2239.315918,3392.439453 
	C2231.064453,3392.142578 2222.748291,3393.035889 2214.488770,3393.708740 
	C2201.938965,3394.731934 2189.311035,3395.395264 2176.894043,3397.343506 
	C2125.413330,3405.421875 2080.068604,3427.322510 2039.465698,3459.547363 
	C2026.466431,3469.864258 2014.453613,3481.214600 2003.141113,3494.057617 
	C2019.109497,3517.828369 2034.796265,3541.179688 2050.534180,3564.606934 
	C2059.831055,3557.240234 2068.545898,3551.117676 2076.358154,3544.004395 
	C2105.124756,3517.812500 2137.776367,3498.702393 2176.943848,3487.847412 
M2956.907227,3386.331055 
	C2937.111572,3388.103271 2917.139648,3388.759277 2897.552246,3391.850586 
	C2829.848877,3402.536133 2773.420654,3434.133301 2729.215332,3486.558105 
	C2678.331299,3546.902588 2655.719727,3617.941650 2652.397461,3695.844727 
	C2651.504883,3716.779297 2653.031982,3737.646484 2655.629150,3758.457520 
	C2660.356445,3796.337158 2670.215820,3832.769775 2686.901367,3867.104004 
	C2704.222900,3902.746582 2727.911377,3933.767822 2757.080322,3960.676514 
	C2775.533203,3977.699707 2795.658691,3992.181396 2817.922119,4003.788818 
	C2863.230713,4027.411133 2911.949219,4035.439941 2962.390381,4035.608154 
	C2967.666504,4035.625732 2972.937744,4034.545654 2978.224121,4034.374512 
	C3004.921387,4033.510010 3031.087402,4029.287109 3056.561035,4021.361816 
	C3101.713135,4007.313477 3140.047607,3982.270752 3172.431152,3948.010254 
	C3178.974365,3941.087646 3184.890625,3933.572754 3191.350342,3926.034180 
	C3168.106934,3905.135010 3145.687744,3884.977295 3122.549561,3864.172852 
	C3117.923340,3870.090332 3113.712402,3876.008057 3108.962158,3881.455078 
	C3093.047852,3899.702148 3074.162109,3914.346436 3052.682373,3925.362061 
	C3021.697266,3941.253174 2988.862793,3948.434570 2953.800293,3946.533447 
	C2925.687012,3945.009277 2899.058838,3938.256836 2874.705078,3924.845703 
	C2803.519775,3885.645996 2767.297852,3823.260010 2758.495117,3743.891846 
	C2756.074951,3722.072998 2756.914795,3700.026367 2760.085938,3678.213623 
	C2762.564697,3661.162354 2764.519043,3643.963867 2768.282227,3627.184082 
	C2776.884277,3588.829346 2795.042725,3555.426025 2825.265869,3529.896484 
	C2874.563477,3488.254639 2932.103516,3473.146240 2995.479248,3482.261475 
	C3037.471680,3488.300781 3071.994629,3509.492432 3100.463867,3540.783691 
	C3106.414062,3547.323242 3111.684326,3554.883545 3121.340820,3557.941162 
	C3143.414307,3537.798340 3165.625977,3517.529785 3187.824951,3497.272461 
	C3183.980713,3492.329834 3180.205811,3488.442139 3177.552246,3483.899170 
	C3165.247559,3462.832275 3146.380371,3448.545654 3126.706543,3435.505615 
	C3075.915771,3401.840332 3019.101807,3387.976318 2956.907227,3386.331055 
M3283.006104,3406.332520 
	C3273.673828,3406.333252 3264.336182,3406.126953 3255.010986,3406.383545 
	C3241.467773,3406.756348 3234.693604,3412.929932 3234.423828,3426.428467 
	C3234.011475,3447.051514 3234.435791,3467.691162 3234.571533,3488.323486 
	C3234.574951,3488.832764 3235.359131,3489.337158 3236.185059,3490.333740 
	C3247.093506,3490.333740 3258.410645,3490.333740 3269.728027,3490.333740 
	C3281.060303,3490.333740 3292.392822,3490.296875 3303.724854,3490.344238 
	C3314.899414,3490.391113 3326.092773,3490.125977 3337.659180,3490.552246 
	C3337.659180,3495.936523 3337.659180,3499.916992 3337.659180,3503.897461 
	C3337.660156,3638.218018 3337.530273,3772.538574 3337.859863,3906.858398 
	C3337.893799,3920.698242 3339.430908,3934.803467 3342.401611,3948.316895 
	C3351.642334,3990.347656 3376.710693,4018.943848 3418.078369,4032.039551 
	C3457.655762,4044.568604 3497.323975,4042.731934 3536.731201,4030.825928 
	C3552.140869,4026.170166 3566.515381,4019.318115 3578.911865,4008.823730 
	C3587.361816,4001.670654 3589.348877,3993.395996 3584.855957,3983.207764 
	C3578.822998,3969.527588 3572.528809,3955.962402 3566.376709,3942.334473 
	C3563.851074,3936.741211 3561.402100,3931.113770 3558.611572,3924.808838 
	C3551.986328,3929.290283 3546.588379,3933.081787 3541.053223,3936.661377 
	C3519.226562,3950.778564 3495.936523,3953.311279 3471.489014,3944.888184 
	C3458.624268,3940.455566 3449.317871,3931.864502 3443.535645,3919.453125 
	C3437.244629,3905.949463 3434.507568,3891.522705 3434.476807,3876.902344 
	C3434.228760,3758.247559 3434.254150,3639.591553 3434.489014,3520.936768 
	C3434.509033,3510.853760 3436.656982,3500.775146 3437.884521,3490.104980 
	C3478.917236,3490.104980 3518.800049,3490.104980 3558.994873,3490.104980 
	C3558.994873,3457.922852 3558.994873,3426.497314 3558.994873,3393.954102 
	C3516.219727,3393.954102 3474.112305,3393.954102 3431.263184,3393.954102 
	C3431.263184,3340.305420 3431.263184,3287.775879 3431.263184,3234.973633 
	C3398.710205,3234.973633 3366.928711,3234.973633 3334.031006,3234.973633 
	C3334.031006,3292.375977 3334.031006,3349.145752 3334.031006,3406.332520 
	C3316.943604,3406.332520 3300.973877,3406.332520 3283.006104,3406.332520 
z"/>
<path fill="#61D9FA" opacity="1.000000" stroke="none" 
	d="
M2163.755371,325.732574 
	C2191.090332,303.964905 2217.577393,282.245209 2244.820312,261.518829 
	C2296.801270,221.971634 2351.422363,186.362854 2408.980469,155.452835 
	C2471.580566,121.835075 2536.631592,94.483253 2606.441406,79.292236 
	C2648.049072,70.238167 2690.053955,67.382065 2732.300049,70.570915 
	C2773.327881,73.667854 2812.843750,83.532944 2849.740234,102.557350 
	C2890.265137,123.452553 2924.713379,151.666840 2953.056641,187.363693 
	C2986.177002,229.076233 3008.667236,276.195496 3024.479980,326.805878 
	C3039.198242,373.914307 3047.581787,422.156921 3052.481689,471.194916 
	C3057.458008,520.999634 3056.937012,570.857605 3055.605713,620.738342 
	C3054.117188,676.519226 3047.656494,731.879822 3039.549316,787.022583 
	C3031.774902,839.904053 3021.357910,892.312134 3009.048584,944.333374 
	C3006.448242,955.322510 3003.713379,966.279724 3001.121826,977.270996 
	C3000.608643,979.448242 3000.468750,981.713623 3000.105225,984.305908 
	C3013.622803,988.108154 3026.799316,991.410461 3039.716797,995.524841 
	C3076.435303,1007.220093 3113.500732,1018.031006 3149.587158,1031.454468 
	C3193.475830,1047.780273 3236.987061,1065.328125 3279.797363,1084.297485 
	C3352.057617,1116.315674 3420.819580,1154.776489 3484.218750,1202.275146 
	C3507.646484,1219.827393 3529.807373,1238.888062 3550.921875,1259.250122 
	C3584.649902,1291.775635 3614.126465,1327.535400 3637.083740,1368.455444 
	C3658.769287,1407.108887 3673.395264,1448.100708 3678.453369,1492.418213 
	C3685.310059,1552.495605 3675.424072,1609.562500 3649.308105,1663.959595 
	C3629.847168,1704.494873 3603.810303,1740.377319 3573.343018,1773.343140 
	C3538.146729,1811.425903 3498.328369,1843.940186 3455.946045,1873.533569 
	C3404.789307,1909.254150 3350.251953,1939.069214 3294.149414,1966.128662 
	C3230.256836,1996.945435 3164.184814,2022.130859 3096.334717,2042.799072 
	C3064.270996,2052.566406 3032.460938,2063.166504 2999.718750,2073.651367 
	C3001.531494,2081.425049 3003.280029,2089.109375 3005.117920,2096.771729 
	C3017.278320,2147.470215 3028.314941,2198.416748 3036.095215,2249.977539 
	C3042.474365,2292.252930 3048.077637,2334.652832 3053.412109,2377.074707 
	C3055.313721,2392.197754 3055.812744,2407.535645 3056.255615,2422.795654 
	C3057.191406,2455.052002 3058.667480,2487.338135 3058.128662,2519.582275 
	C3056.959717,2589.583740 3048.023193,2658.500488 3026.628418,2725.525635 
	C3010.592041,2775.764160 2988.077148,2822.523682 2954.395264,2863.379639 
	C2904.162598,2924.310791 2840.539795,2962.367188 2762.020508,2974.279297 
	C2722.344971,2980.298340 2682.635742,2979.914795 2642.850830,2974.605957 
	C2580.275879,2966.256104 2521.527344,2945.692627 2464.537598,2919.491699 
	C2389.845215,2885.152344 2320.959717,2841.185303 2254.976318,2792.432373 
	C2206.805908,2756.841064 2160.946533,2718.436523 2116.256836,2678.626465 
	C2099.369385,2663.583252 2083.242432,2647.687988 2066.726318,2632.226318 
	C2061.890625,2627.699463 2056.908691,2623.328613 2051.377930,2618.329590 
	C2041.939453,2627.010498 2032.663574,2635.400879 2023.541504,2643.955078 
	C1978.404907,2686.281982 1931.320312,2726.317139 1882.452026,2764.269775 
	C1840.365601,2796.955322 1796.754395,2827.455322 1751.291016,2855.242676 
	C1693.821899,2890.367920 1633.973755,2920.666504 1569.941528,2942.073730 
	C1530.790649,2955.162842 1490.806763,2964.916992 1449.509033,2967.873779 
	C1429.963867,2969.272949 1410.271240,2970.146729 1390.708618,2969.459229 
	C1344.212402,2967.824219 1298.909912,2959.716309 1256.607666,2939.322266 
	C1231.354980,2927.147705 1207.924194,2912.020752 1186.811035,2893.387695 
	C1137.045776,2849.466797 1105.380737,2794.022217 1083.639160,2732.195312 
	C1068.703979,2689.723633 1058.933228,2646.033691 1053.796021,2601.368652 
	C1051.069458,2577.664062 1048.822754,2553.841064 1047.868042,2530.011230 
	C1046.590942,2498.132080 1045.669434,2466.160156 1046.651001,2434.291504 
	C1047.609131,2403.175781 1050.654785,2372.090576 1053.711548,2341.083496 
	C1056.344360,2314.374512 1060.045532,2287.761475 1063.695557,2261.163818 
	C1070.378052,2212.468506 1080.187988,2164.347168 1091.043945,2116.434570 
	C1094.927002,2099.296875 1099.094116,2082.223145 1103.324097,2064.305176 
	C1099.947388,2063.161621 1096.624390,2061.772461 1093.170410,2060.906006 
	C1031.496582,2045.433594 971.642273,2024.463867 912.411987,2001.531860 
	C863.708130,1982.675537 815.788391,1962.046753 769.283936,1938.282349 
	C700.951904,1903.363525 636.003540,1863.204224 577.832458,1812.735596 
	C534.060181,1774.759033 495.836639,1732.138794 466.865936,1681.617310 
	C444.779144,1643.100464 430.103241,1601.978516 424.528412,1557.972534 
	C417.440552,1502.023071 425.647369,1447.999512 448.147980,1396.278320 
	C468.139618,1350.324219 496.729950,1310.183960 530.790161,1273.574219 
	C573.714600,1227.436768 623.188538,1189.498779 675.836304,1155.398804 
	C716.662109,1128.955933 759.139648,1105.323120 803.216248,1084.887085 
	C842.685486,1066.587158 882.596619,1049.002686 923.241028,1033.543091 
	C962.022522,1018.792114 1001.971008,1007.095337 1041.468140,994.245667 
	C1061.958984,987.579346 1082.583252,981.323425 1103.297363,974.835083 
	C1097.817627,951.158630 1091.805908,928.022461 1087.188599,904.611389 
	C1078.907104,862.621643 1070.907104,820.559631 1063.852661,778.350098 
	C1058.555664,746.657043 1054.760376,714.706726 1050.636963,682.826904 
	C1049.148926,671.321655 1048.547119,659.695618 1047.723267,648.111694 
	C1045.198364,612.615173 1043.879028,577.085999 1044.281006,541.483582 
	C1044.806396,494.924194 1048.553223,448.643097 1056.542969,402.791443 
	C1064.150391,359.134308 1075.991699,316.627380 1093.784912,275.903961 
	C1111.098877,236.277481 1133.341309,199.876663 1163.147827,168.282776 
	C1212.330933,116.150398 1271.906250,84.109642 1343.066895,73.514221 
	C1374.212280,68.876839 1405.466431,68.132339 1436.591797,70.680923 
	C1486.496582,74.767212 1534.638062,87.329132 1581.533081,104.882652 
	C1643.157959,127.949860 1700.958496,158.470444 1756.502319,193.503769 
	C1827.858765,238.510773 1894.415894,289.867981 1957.336426,345.951660 
	C1987.868652,373.166107 2017.719482,401.144928 2047.922363,428.817719 
	C2085.936279,395.002441 2124.592529,360.615784 2163.755371,325.732574 
M2485.860596,1241.154541 
	C2470.164307,1214.894897 2455.074707,1188.248535 2438.640381,1162.459229 
	C2408.244873,1114.761597 2377.031738,1067.585327 2346.262695,1020.124695 
	C2343.718750,1016.200684 2340.954590,1013.835693 2335.976318,1013.580505 
	C2319.091064,1012.714966 2302.237305,1011.238708 2285.351562,1010.380493 
	C2255.838135,1008.880493 2226.319580,1007.376221 2196.785400,1006.411194 
	C2165.541504,1005.390320 2134.277832,1004.507080 2103.021240,1004.452820 
	C2063.751221,1004.384705 2024.477783,1005.093262 1985.209473,1005.707153 
	C1956.281494,1006.159363 1927.356689,1006.898682 1898.435791,1007.701233 
	C1882.169189,1008.152588 1865.909668,1008.913635 1849.653564,1009.674133 
	C1822.462891,1010.946167 1795.281616,1012.426331 1768.086182,1013.580139 
	C1762.940063,1013.798462 1759.552612,1015.490051 1756.729736,1019.979431 
	C1745.218506,1038.286011 1733.162231,1056.249878 1721.650513,1074.556152 
	C1686.592896,1130.305786 1651.031372,1185.754639 1616.955933,1242.100830 
	C1592.193359,1283.047363 1569.253052,1325.106689 1545.939819,1366.915039 
	C1533.311523,1389.561890 1521.325317,1412.580322 1509.550781,1435.686646 
	C1494.905884,1464.425659 1480.778687,1493.428711 1466.479736,1522.213501 
	C1468.156006,1525.663940 1469.567627,1528.640747 1471.039307,1531.587524 
	C1485.604004,1560.749512 1499.885498,1590.057739 1514.831665,1619.022949 
	C1530.077026,1648.567749 1545.150391,1678.251953 1561.759644,1707.032104 
	C1599.482422,1772.397461 1637.374878,1837.688354 1676.616699,1902.145752 
	C1702.040283,1943.905884 1729.999634,1984.120850 1756.727173,2025.090454 
	C1759.522827,2029.375854 1763.017090,2031.500488 1768.142334,2031.726807 
	C1778.746460,2032.194458 1789.330688,2033.098999 1799.932129,2033.648071 
	C1826.785034,2035.038818 1853.636230,2036.486450 1880.500610,2037.616943 
	C1902.083130,2038.525269 1923.680908,2039.130615 1945.277466,2039.630737 
	C1963.253540,2040.047119 1981.240356,2040.436523 1999.217651,2040.278198 
	C2056.805176,2039.770996 2114.396484,2039.328979 2171.973633,2038.215820 
	C2206.840820,2037.541748 2241.686768,2035.725342 2276.538086,2034.320190 
	C2295.786621,2033.544189 2315.021973,2032.418823 2334.273682,2031.754150 
	C2339.853271,2031.561523 2343.496094,2029.396484 2346.410889,2024.699219 
	C2353.251953,2013.674438 2360.468994,2002.883545 2367.503906,1991.978271 
	C2390.230225,1956.748779 2413.384277,1921.785400 2435.567383,1886.216797 
	C2478.857666,1816.804077 2521.004639,1746.684692 2559.039551,1674.221680 
	C2584.540527,1625.637451 2608.968994,1576.490479 2634.020508,1527.668823 
	C2635.898682,1524.008179 2636.002930,1521.142578 2634.107666,1517.488281 
	C2629.517822,1508.638428 2625.583740,1499.449097 2621.012207,1490.589111 
	C2597.376709,1444.780151 2574.235840,1398.700928 2549.721924,1353.365112 
	C2529.488037,1315.944458 2507.581299,1279.428223 2485.860596,1241.154541 
M2236.895508,2415.901123 
	C2209.766602,2446.751953 2182.637939,2477.602539 2155.101074,2508.917236 
	C2163.298096,2516.675537 2171.206055,2524.269287 2179.232422,2531.735596 
	C2202.359131,2553.248779 2225.245117,2575.031982 2248.748535,2596.126465 
	C2300.293457,2642.388428 2354.784180,2684.872803 2412.866455,2722.699219 
	C2462.338867,2754.917725 2513.842773,2783.188721 2569.647217,2802.918945 
	C2618.543701,2820.207031 2668.458252,2830.963379 2720.933105,2826.480469 
	C2767.939941,2822.464844 2805.954834,2802.000977 2836.208496,2766.448975 
	C2860.821533,2737.524902 2875.512695,2703.439453 2886.168213,2667.449219 
	C2902.036621,2613.853516 2907.207275,2558.757812 2908.282227,2503.167725 
	C2908.989502,2466.586426 2907.223877,2430.071777 2903.979736,2393.634033 
	C2902.597656,2378.111328 2901.525635,2362.531250 2899.335205,2347.116211 
	C2894.625244,2313.971924 2889.400879,2280.898682 2884.167480,2247.831055 
	C2877.264160,2204.210938 2868.613525,2160.936279 2857.720703,2118.126465 
	C2856.683594,2114.050293 2855.205566,2110.085938 2854.125977,2106.680664 
	C2806.042480,2116.322021 2758.978760,2126.149902 2711.746582,2135.087402 
	C2682.103760,2140.696533 2652.269287,2145.394287 2622.408447,2149.726318 
	C2589.932129,2154.437256 2557.360107,2158.542236 2524.766357,2162.371338 
	C2495.153076,2165.850586 2465.465332,2168.718262 2435.784668,2171.587646 
	C2429.491943,2172.196289 2424.989014,2174.072998 2420.927734,2179.536865 
	C2385.815186,2226.777588 2350.821533,2274.122559 2314.769775,2320.644043 
	C2289.947266,2352.675293 2263.501953,2383.448486 2236.895508,2415.901123 
M1234.112183,878.944824 
	C1238.812012,898.911438 1243.511841,918.878052 1248.229980,938.922668 
	C1252.524414,938.265747 1255.532471,938.028137 1258.429321,937.330017 
	C1333.017700,919.355164 1408.450317,905.722168 1484.300537,894.528442 
	C1544.653564,885.621826 1605.220459,878.189087 1666.099243,873.693542 
	C1673.041382,873.180847 1678.104492,870.725525 1682.581787,864.707336 
	C1719.108887,815.609680 1755.093872,766.060242 1793.144775,718.158386 
	C1829.507690,672.381348 1868.018921,628.303345 1905.865601,583.716064 
	C1919.399048,567.772339 1933.751465,552.523682 1947.885498,536.784729 
	C1946.318970,535.094543 1944.825928,533.305054 1943.152100,531.704529 
	C1921.503906,511.002563 1900.456665,489.617096 1878.012329,469.815948 
	C1846.124512,441.683746 1813.849731,413.910919 1780.584229,387.437225 
	C1720.844482,339.894379 1657.630005,297.560455 1588.331787,264.865173 
	C1553.658081,248.505981 1517.953979,235.023499 1480.558960,226.453873 
	C1444.712891,218.239227 1408.497070,214.904709 1371.745361,219.641449 
	C1328.920288,225.160904 1294.962891,246.220291 1267.585693,278.665039 
	C1243.586182,307.106812 1228.643311,340.334961 1217.758301,375.610168 
	C1200.956665,430.059906 1196.303345,486.219788 1194.482666,542.718445 
	C1193.958862,558.967285 1194.914185,575.289062 1195.732910,591.550110 
	C1197.068481,618.073059 1197.617188,644.718994 1200.725098,671.050171 
	C1205.619995,712.521973 1211.938843,753.842712 1218.471802,795.098022 
	C1222.828857,822.612183 1228.605225,849.901489 1234.112183,878.944824 
M1719.073120,2702.106201 
	C1801.372803,2644.402344 1876.501465,2578.302979 1947.638672,2508.568848 
	C1917.498413,2474.535156 1887.823730,2441.772705 1858.974487,2408.298584 
	C1795.777222,2334.969727 1736.373901,2258.663330 1681.372314,2178.975586 
	C1678.010742,2174.105225 1674.075317,2172.126709 1668.282715,2171.551514 
	C1644.215332,2169.161621 1620.128296,2166.786377 1596.170532,2163.512939 
	C1546.591675,2156.738281 1496.963867,2150.166992 1447.591187,2142.077637 
	C1392.611938,2133.069824 1337.888672,2122.496338 1283.066528,2112.536133 
	C1271.767334,2110.483398 1260.522705,2108.130615 1248.833252,2105.833740 
	C1248.274536,2108.395996 1247.919067,2109.985352 1247.582031,2111.578369 
	C1240.026123,2147.288574 1232.430908,2182.990479 1224.927246,2218.711426 
	C1213.533813,2272.950195 1204.724731,2327.612305 1200.064453,2382.842773 
	C1197.388062,2414.562988 1195.182739,2446.391846 1194.649658,2478.203125 
	C1194.210938,2504.377197 1195.812134,2530.656250 1197.879883,2556.780029 
	C1199.656006,2579.217529 1202.441162,2601.668945 1206.435181,2623.815674 
	C1213.304565,2661.905762 1224.697388,2698.628906 1243.603516,2732.734863 
	C1255.174438,2753.608887 1269.520264,2772.307129 1287.640747,2787.752441 
	C1318.146729,2813.755127 1354.300537,2825.673340 1393.866699,2827.561523 
	C1419.172607,2828.769287 1444.222656,2825.767090 1469.063110,2820.812744 
	C1513.720581,2811.906738 1555.687012,2795.378418 1596.392334,2775.525635 
	C1638.920898,2754.783203 1678.938232,2729.720459 1719.073120,2702.106201 
M2852.918457,298.147705 
	C2846.447021,289.720612 2840.344238,280.977142 2833.437988,272.922913 
	C2808.135254,243.415329 2775.600342,226.543564 2737.618896,220.288223 
	C2702.078613,214.434937 2666.744141,217.604843 2631.777344,225.281509 
	C2582.069092,236.194550 2535.620361,255.630905 2490.771484,279.358185 
	C2414.520996,319.698853 2345.395752,370.322662 2279.823975,425.915070 
	C2247.648438,453.194061 2216.702148,481.929016 2185.379639,510.204559 
	C2176.039062,518.636353 2167.309326,527.744324 2158.318359,536.524231 
	C2159.661621,538.435364 2160.316650,539.610413 2161.195557,540.582642 
	C2183.930176,565.725952 2207.205566,590.402588 2229.314209,616.083984 
	C2258.572754,650.070984 2287.896729,684.082214 2315.422363,719.460632 
	C2352.777100,767.472107 2388.570312,816.703491 2424.692139,865.663208 
	C2428.720215,871.122925 2433.165771,873.078125 2439.425537,873.749878 
	C2471.064209,877.144836 2502.754639,880.222717 2534.271240,884.546387 
	C2582.538086,891.167847 2630.778076,898.109863 2678.842529,906.046387 
	C2724.979492,913.664734 2770.886230,922.681824 2816.877930,931.172424 
	C2830.174561,933.627197 2843.415039,936.386108 2857.254395,939.118774 
	C2858.697754,932.818787 2860.067383,927.383240 2861.181396,921.895874 
	C2874.448242,856.556885 2890.641357,791.757568 2898.382568,725.390808 
	C2902.565918,689.527527 2907.407715,653.645081 2909.272949,617.632568 
	C2911.404541,576.478149 2911.680908,535.181702 2908.452637,493.947449 
	C2905.882812,461.125610 2901.515137,428.621521 2893.553955,396.691620 
	C2884.994873,362.361969 2873.102051,329.300629 2852.918457,298.147705 
M999.612854,1877.504150 
	C1047.647217,1894.722168 1095.922852,1911.172607 1145.292236,1924.634277 
	C1146.347046,1921.936157 1147.058960,1920.441528 1147.526001,1918.873779 
	C1166.993286,1853.535889 1189.936157,1789.406006 1214.780029,1725.947144 
	C1240.590576,1660.018921 1268.278809,1594.885376 1298.406006,1530.806396 
	C1301.153687,1524.962036 1301.225342,1519.875366 1298.345337,1514.027832 
	C1292.033936,1501.212769 1286.122070,1488.192383 1280.343506,1475.124756 
	C1230.575684,1362.579956 1186.191650,1247.980591 1149.059937,1130.617798 
	C1147.979736,1127.203735 1146.508667,1123.913452 1144.973389,1119.925293 
	C1125.298584,1125.906494 1106.238281,1131.609375 1087.234131,1137.493896 
	C1000.712830,1164.284912 916.377075,1196.572021 835.677368,1237.936157 
	C778.092163,1267.452637 723.081787,1300.909058 674.212036,1343.752441 
	C645.520996,1368.905396 619.877075,1396.636108 600.653015,1429.847656 
	C586.678101,1453.990723 577.087463,1479.656128 574.335266,1507.600220 
	C570.743103,1544.071777 580.675049,1577.398315 598.400757,1608.765381 
	C618.630737,1644.563599 646.143921,1674.332397 676.955566,1701.068970 
	C725.718018,1743.382202 780.266296,1777.001343 837.503662,1806.525024 
	C889.582581,1833.387939 943.369934,1856.286987 999.612854,1877.504150 
M3346.269043,1284.700439 
	C3225.965332,1208.813232 3094.223633,1160.056030 2958.088379,1120.082520 
	C2957.116211,1122.716797 2956.403320,1124.471191 2955.815430,1126.266602 
	C2944.335938,1161.325195 2933.918213,1196.774780 2921.160400,1231.361450 
	C2901.499756,1284.660889 2880.991943,1337.679443 2859.413818,1390.230103 
	C2842.254395,1432.019897 2823.076172,1472.985718 2804.477051,1514.173950 
	C2801.727295,1520.263062 2801.901855,1525.386230 2804.723633,1531.137573 
	C2809.555664,1540.984985 2814.144287,1550.957031 2818.622559,1560.971680 
	C2864.103516,1662.675537 2904.935547,1766.197266 2940.086670,1871.936890 
	C2945.838379,1889.237671 2951.593506,1906.537354 2957.511230,1924.330811 
	C2960.108887,1923.836426 2962.366699,1923.591919 2964.515625,1922.970825 
	C3030.632080,1903.858887 3095.913818,1882.339844 3159.650391,1856.229004 
	C3218.816406,1831.990356 3276.483887,1804.753052 3331.208008,1771.580444 
	C3380.907471,1741.453369 3427.681152,1707.562500 3466.627686,1663.886841 
	C3491.462646,1636.036621 3511.405762,1605.322632 3522.351074,1569.242798 
	C3532.638428,1535.332031 3531.637451,1501.823853 3519.536377,1468.600830 
	C3506.428223,1432.613281 3484.376709,1402.410522 3458.322754,1374.908936 
	C3425.394043,1340.151123 3387.637939,1311.324951 3346.269043,1284.700439 
M1322.814453,1077.742432 
	C1312.482544,1079.966309 1302.150635,1082.190186 1291.904907,1084.395508 
	C1295.455444,1116.718750 1373.545532,1327.771606 1389.890503,1349.352783 
	C1442.020752,1241.400391 1506.147339,1140.547729 1569.758911,1037.285400 
	C1558.425903,1038.521362 1549.181519,1039.167358 1540.057495,1040.586426 
	C1498.805664,1047.002808 1457.529785,1053.296631 1416.376831,1060.305908 
	C1385.661621,1065.537231 1355.120972,1071.794189 1322.814453,1077.742432 
M2560.280518,1070.699951 
	C2584.178711,1110.615356 2608.848389,1150.093872 2631.764404,1190.565430 
	C2656.151123,1233.634521 2678.858887,1277.653931 2702.345459,1321.233765 
	C2706.961182,1329.797852 2711.786133,1338.249268 2717.428711,1348.396606 
	C2729.888184,1317.314941 2741.953369,1288.177368 2753.257324,1258.747559 
	C2764.447021,1229.615356 2775.249756,1200.320923 2785.520264,1170.853027 
	C2795.831055,1141.269897 2806.478027,1111.759399 2814.999268,1081.492432 
	C2739.635498,1063.760498 2560.223145,1034.327759 2536.986084,1035.037231 
	C2544.673340,1046.733032 2552.132080,1058.080933 2560.280518,1070.699951 
M2657.698730,1806.705444 
	C2617.772461,1873.525757 2577.846191,1940.346069 2537.427246,2007.991211 
	C2631.149658,1995.823486 2723.423584,1980.275879 2815.061768,1960.542114 
	C2804.328369,1917.583252 2728.560059,1716.534790 2716.441650,1698.556030 
	C2697.073975,1734.212280 2677.737305,1769.810913 2657.698730,1806.705444 
M1456.301392,1824.715332 
	C1433.806519,1783.820923 1411.311646,1742.926392 1388.561279,1701.567505 
	C1351.781372,1787.353516 1320.313354,1874.671875 1290.973877,1962.833740 
	C1328.865601,1974.851807 1549.499146,2011.796509 1568.384033,2009.196533 
	C1566.310791,2005.940796 1564.334229,2002.967163 1562.486206,1999.915649 
	C1527.362305,1941.921021 1492.253784,1883.917114 1456.301392,1824.715332 
M2074.243896,2373.237793 
	C2075.492920,2371.681641 2076.668457,2370.059570 2078.001465,2368.579346 
	C2124.943604,2316.447754 2169.832031,2262.596436 2212.968506,2207.282715 
	C2218.158691,2200.627441 2222.965088,2193.672607 2228.582275,2185.990967 
	C2109.895996,2189.514648 1992.731689,2189.383301 1874.126587,2186.049805 
	C1929.990723,2260.494629 1989.420898,2329.726318 2051.398193,2398.113281 
	C2058.961914,2389.849609 2066.102295,2382.048096 2074.243896,2373.237793 
M1963.768066,746.751221 
	C1933.001099,783.184692 1902.968018,820.193542 1874.093628,859.222656 
	C1992.818726,854.997437 2110.103516,855.141479 2229.075439,859.155579 
	C2171.495117,785.785828 2113.445068,715.141907 2051.037354,646.318909 
	C2021.734741,680.087524 1993.249634,712.914124 1963.768066,746.751221 
z"/>
<path fill="#61D9FA" opacity="1.000000" stroke="none" 
	d="
M515.658997,3634.000000 
	C515.658997,3480.387451 515.658997,3327.774902 515.658997,3174.629639 
	C517.779419,3174.280518 519.631226,3173.725342 521.488464,3173.706787 
	C570.754700,3173.214355 620.021118,3172.710449 669.288452,3172.351807 
	C712.928284,3172.034180 756.569214,3171.766602 800.209900,3171.714355 
	C826.187439,3171.683350 852.185120,3171.555176 878.138306,3172.473145 
	C909.963379,3173.598633 941.752869,3175.416504 972.552490,3185.002197 
	C1042.126343,3206.655273 1088.950439,3252.471191 1115.359131,3319.619629 
	C1127.179321,3349.674561 1135.510254,3380.745361 1137.969360,3413.184814 
	C1142.971802,3479.173584 1124.497681,3537.878906 1084.336670,3590.270020 
	C1067.127563,3612.720703 1047.576538,3632.317871 1022.813171,3646.225342 
	C996.193665,3661.175049 967.545105,3670.552490 937.607483,3676.149902 
	C931.162109,3677.354980 924.698425,3678.461914 917.155762,3679.808105 
	C992.845459,3794.981689 1067.870239,3909.143311 1143.809326,4024.696289 
	C1139.701904,4025.141846 1137.290283,4025.628418 1134.878296,4025.631592 
	C1097.886841,4025.679932 1060.893066,4025.444092 1023.905151,4025.805664 
	C1013.312439,4025.909180 1006.095947,4021.204102 1000.671570,4013.032715 
	C989.999451,3996.956055 979.596191,3980.700684 969.132690,3964.486084 
	C950.372131,3935.414062 931.640320,3906.323242 912.911987,3877.230225 
	C877.799316,3822.686279 842.569275,3768.217041 807.674683,3713.533936 
	C798.111450,3698.547363 784.847656,3689.993896 767.401184,3689.838135 
	C716.750305,3689.385742 666.092712,3689.685547 615.437744,3689.719727 
	C614.507629,3689.720459 613.577759,3690.086670 611.849365,3690.450439 
	C611.849365,3793.973633 611.849365,3897.451904 611.849365,4001.630371 
	C579.591919,4001.630371 548.168579,4001.630371 515.658997,4001.630371 
	C515.658997,3879.375488 515.658997,3757.187744 515.658997,3634.000000 
M869.343872,3588.339844 
	C907.896790,3585.298584 941.666992,3570.731201 969.288757,3543.890625 
	C1004.615173,3509.563721 1021.055115,3467.625244 1016.475830,3417.891113 
	C1014.687500,3398.468262 1010.457886,3379.850586 1001.965942,3362.337646 
	C978.772095,3314.504883 940.794189,3285.491455 888.213135,3278.683594 
	C854.735352,3274.349609 820.723877,3273.341797 786.913086,3272.597900 
	C752.335571,3271.836914 717.711731,3273.311523 683.106567,3273.628662 
	C662.446289,3273.818115 641.782837,3273.663574 621.120850,3273.663574 
	C618.229614,3273.663574 615.338440,3273.663330 612.346008,3273.663330 
	C612.346008,3379.468018 612.346008,3484.213135 612.346008,3589.667236 
	C614.955261,3589.667236 616.894409,3589.655518 618.833496,3589.668701 
	C651.143433,3589.889404 683.453003,3590.213379 715.763306,3590.309326 
	C753.421143,3590.421143 791.080688,3590.497803 828.737122,3590.243408 
	C841.666748,3590.156006 854.589294,3589.023682 869.343872,3588.339844 
z"/>
<path fill="#60D9FA" opacity="1.000000" stroke="none" 
	d="
M1326.324219,3502.363281 
	C1362.571289,3458.172852 1408.365845,3429.067871 1460.898804,3409.899902 
	C1504.696289,3393.918945 1550.097168,3388.214600 1596.299438,3392.572754 
	C1657.615112,3398.356201 1711.978394,3421.188965 1757.762329,3463.191650 
	C1799.327393,3501.323975 1826.219116,3548.367188 1842.442871,3601.901367 
	C1848.701050,3622.552490 1854.910034,3643.297363 1856.654297,3664.926758 
	C1857.638672,3677.133057 1857.664062,3689.442627 1857.582642,3701.702148 
	C1857.494507,3714.981689 1856.766357,3728.256836 1856.349976,3741.534912 
	C1856.269043,3744.120117 1856.338379,3746.710205 1856.338379,3750.301025 
	C1691.076172,3750.301025 1526.619873,3750.301025 1361.709473,3750.301025 
	C1361.508301,3764.089111 1364.761108,3776.316406 1367.874268,3788.469482 
	C1377.822388,3827.304443 1394.369385,3862.877930 1420.774536,3893.475342 
	C1437.769531,3913.168457 1457.843872,3928.488770 1481.856567,3938.880127 
	C1514.894043,3953.177002 1549.214600,3961.606445 1585.208496,3961.516357 
	C1620.906006,3961.427002 1654.893799,3952.846680 1687.193970,3937.665039 
	C1716.590454,3923.847656 1743.395142,3906.066650 1767.899780,3884.774658 
	C1768.335938,3884.395752 1769.082886,3884.374268 1771.066772,3883.753906 
	C1786.628296,3904.566895 1802.479492,3925.767334 1819.169434,3948.089600 
	C1811.345581,3955.605957 1804.363770,3963.100098 1796.588623,3969.652832 
	C1751.181274,4007.920166 1698.873413,4030.561768 1640.017700,4038.345459 
	C1613.318359,4041.876465 1586.553101,4044.443604 1559.617554,4043.606934 
	C1482.900757,4041.223389 1414.282104,4017.499023 1356.814819,3965.275391 
	C1304.114868,3917.384277 1272.954102,3857.947266 1261.772095,3787.703613 
	C1256.399902,3753.956787 1256.350464,3720.023926 1258.630493,3686.212158 
	C1261.436279,3644.603760 1270.364990,3604.144531 1287.603760,3565.816895 
	C1297.758423,3543.239746 1310.336304,3522.191406 1326.324219,3502.363281 
M1490.999878,3682.332520 
	C1579.969971,3682.199463 1668.940063,3682.066895 1757.910278,3681.909180 
	C1758.167236,3681.908936 1758.434448,3681.553223 1758.677734,3681.341553 
	C1758.929199,3681.123779 1759.157104,3680.878906 1759.994141,3680.059814 
	C1759.475830,3674.656738 1758.750000,3668.754639 1758.368652,3662.830322 
	C1756.686768,3636.711914 1750.633057,3611.617920 1739.933716,3587.789307 
	C1721.410034,3546.534912 1691.614380,3516.650879 1649.335938,3499.716064 
	C1628.505005,3491.372314 1606.912720,3487.075439 1584.496704,3485.266846 
	C1560.715942,3483.348145 1537.385132,3484.380859 1514.448242,3490.716309 
	C1472.801025,3502.219727 1438.578613,3525.364258 1410.718140,3558.165283 
	C1385.486084,3587.871582 1370.188477,3621.915283 1366.559570,3660.865234 
	C1365.925415,3667.671875 1366.740601,3674.613281 1366.904175,3682.332520 
	C1408.457275,3682.332520 1448.728516,3682.332520 1490.999878,3682.332520 
z"/>
<path fill="#60D9FA" opacity="1.000000" stroke="none" 
	d="
M2176.146729,3488.040283 
	C2137.776367,3498.702393 2105.124756,3517.812500 2076.358154,3544.004395 
	C2068.545898,3551.117676 2059.831055,3557.240234 2050.534180,3564.606934 
	C2034.796265,3541.179688 2019.109497,3517.828369 2003.141113,3494.057617 
	C2014.453613,3481.214600 2026.466431,3469.864258 2039.465698,3459.547363 
	C2080.068604,3427.322510 2125.413330,3405.421875 2176.894043,3397.343506 
	C2189.311035,3395.395264 2201.938965,3394.731934 2214.488770,3393.708740 
	C2222.748291,3393.035889 2231.064453,3392.142578 2239.315918,3392.439453 
	C2280.126709,3393.907227 2320.884033,3396.209961 2360.709229,3406.277588 
	C2387.429932,3413.031982 2412.336182,3423.921875 2434.137207,3440.998047 
	C2464.193604,3464.540527 2482.591553,3495.483643 2489.548828,3532.865723 
	C2492.084473,3546.489746 2493.431885,3560.528564 2493.500244,3574.387207 
	C2494.031494,3681.688965 2494.186523,3788.993164 2494.299316,3896.296387 
	C2494.335449,3930.608154 2493.892334,3964.920654 2493.670654,3999.232666 
	C2493.657959,4001.183838 2493.668945,4003.135254 2493.668945,4005.684082 
	C2463.494629,4005.684082 2434.066162,4005.684082 2403.907959,4005.684082 
	C2403.907959,3992.623535 2403.907959,3979.766113 2403.907959,3965.797119 
	C2400.888184,3967.005615 2398.699463,3967.521973 2396.900146,3968.656250 
	C2375.794678,3981.963135 2354.345215,3994.777344 2333.787354,4008.887695 
	C2308.785400,4026.048584 2281.245850,4035.561523 2251.529297,4039.679199 
	C2231.105713,4042.509521 2210.599609,4044.557617 2189.967041,4043.614990 
	C2136.115234,4041.154053 2086.727539,4025.974121 2044.596802,3991.107666 
	C2008.699707,3961.399658 1987.859985,3922.923340 1980.425659,3877.243652 
	C1978.036743,3862.564697 1976.281128,3847.533691 1976.583496,3832.711670 
	C1977.572876,3784.213379 1990.710327,3739.728516 2023.022461,3702.174805 
	C2052.370605,3668.065918 2089.862793,3648.021484 2133.261963,3638.400879 
	C2160.255615,3632.417236 2187.614258,3629.430420 2215.342773,3630.302490 
	C2251.316895,3631.434326 2285.741943,3639.127197 2318.358154,3654.408691 
	C2341.662842,3665.327393 2363.192627,3679.029053 2382.720703,3695.904541 
	C2386.013916,3698.750488 2390.729492,3699.950928 2395.637207,3702.322266 
	C2395.637207,3689.965332 2395.889404,3679.098633 2395.572754,3668.248535 
	C2395.185303,3654.979248 2394.352783,3641.722656 2393.655762,3628.463623 
	C2392.505127,3606.566650 2389.988281,3584.892334 2384.377930,3563.598389 
	C2375.567139,3530.156006 2354.402588,3508.069336 2322.868652,3495.120605 
	C2302.975586,3486.952148 2282.137207,3483.213623 2260.833496,3481.716553 
	C2250.906250,3481.019043 2240.946045,3480.395264 2231.002441,3480.417725 
	C2212.680664,3480.459473 2194.636963,3482.994873 2176.146729,3488.040283 
M2394.686035,3793.331543 
	C2394.814453,3783.554443 2391.158936,3775.064453 2385.059814,3767.765869 
	C2380.397217,3762.185547 2375.402832,3756.713623 2369.796631,3752.120361 
	C2348.213867,3734.436768 2323.657471,3721.926758 2297.453857,3712.764160 
	C2278.241455,3706.045654 2258.161133,3702.681885 2237.880859,3702.537842 
	C2216.249023,3702.384277 2194.999512,3706.097900 2174.259766,3712.624756 
	C2159.922119,3717.136963 2145.710693,3722.009033 2133.673828,3731.172363 
	C2094.690674,3760.850830 2076.859863,3799.853516 2081.518555,3849.149658 
	C2084.929688,3885.245361 2102.154785,3913.195068 2130.004639,3935.069092 
	C2154.281738,3954.136963 2182.896484,3962.768555 2213.081299,3965.500000 
	C2260.872559,3969.824219 2305.367676,3957.821777 2347.086182,3935.021484 
	C2366.356689,3924.489502 2381.306396,3909.572510 2387.565430,3887.799316 
	C2392.644043,3870.131592 2394.788818,3851.770508 2393.245605,3833.617188 
	C2392.129150,3820.481445 2393.135254,3807.892090 2394.686035,3793.331543 
z"/>
<path fill="#60D9F9" opacity="1.000000" stroke="none" 
	d="
M2957.862305,3386.330566 
	C3019.101807,3387.976318 3075.915771,3401.840332 3126.706543,3435.505615 
	C3146.380371,3448.545654 3165.247559,3462.832275 3177.552246,3483.899170 
	C3180.205811,3488.442139 3183.980713,3492.329834 3187.824951,3497.272461 
	C3165.625977,3517.529785 3143.414307,3537.798340 3121.340820,3557.941162 
	C3111.684326,3554.883545 3106.414062,3547.323242 3100.463867,3540.783691 
	C3071.994629,3509.492432 3037.471680,3488.300781 2995.479248,3482.261475 
	C2932.103516,3473.146240 2874.563477,3488.254639 2825.265869,3529.896484 
	C2795.042725,3555.426025 2776.884277,3588.829346 2768.282227,3627.184082 
	C2764.519043,3643.963867 2762.564697,3661.162354 2760.085938,3678.213623 
	C2756.914795,3700.026367 2756.074951,3722.072998 2758.495117,3743.891846 
	C2767.297852,3823.260010 2803.519775,3885.645996 2874.705078,3924.845703 
	C2899.058838,3938.256836 2925.687012,3945.009277 2953.800293,3946.533447 
	C2988.862793,3948.434570 3021.697266,3941.253174 3052.682373,3925.362061 
	C3074.162109,3914.346436 3093.047852,3899.702148 3108.962158,3881.455078 
	C3113.712402,3876.008057 3117.923340,3870.090332 3122.549561,3864.172852 
	C3145.687744,3884.977295 3168.106934,3905.135010 3191.350342,3926.034180 
	C3184.890625,3933.572754 3178.974365,3941.087646 3172.431152,3948.010254 
	C3140.047607,3982.270752 3101.713135,4007.313477 3056.561035,4021.361816 
	C3031.087402,4029.287109 3004.921387,4033.510010 2978.224121,4034.374512 
	C2972.937744,4034.545654 2967.666504,4035.625732 2962.390381,4035.608154 
	C2911.949219,4035.439941 2863.230713,4027.411133 2817.922119,4003.788818 
	C2795.658691,3992.181396 2775.533203,3977.699707 2757.080322,3960.676514 
	C2727.911377,3933.767822 2704.222900,3902.746582 2686.901367,3867.104004 
	C2670.215820,3832.769775 2660.356445,3796.337158 2655.629150,3758.457520 
	C2653.031982,3737.646484 2651.504883,3716.779297 2652.397461,3695.844727 
	C2655.719727,3617.941650 2678.331299,3546.902588 2729.215332,3486.558105 
	C2773.420654,3434.133301 2829.848877,3402.536133 2897.552246,3391.850586 
	C2917.139648,3388.759277 2937.111572,3388.103271 2957.862305,3386.330566 
z"/>
<path fill="#60D9FA" opacity="1.000000" stroke="none" 
	d="
M3284.004883,3406.332520 
	C3300.973877,3406.332520 3316.943604,3406.332520 3334.031006,3406.332520 
	C3334.031006,3349.145752 3334.031006,3292.375977 3334.031006,3234.973633 
	C3366.928711,3234.973633 3398.710205,3234.973633 3431.263184,3234.973633 
	C3431.263184,3287.775879 3431.263184,3340.305420 3431.263184,3393.954102 
	C3474.112305,3393.954102 3516.219727,3393.954102 3558.994873,3393.954102 
	C3558.994873,3426.497314 3558.994873,3457.922852 3558.994873,3490.104980 
	C3518.800049,3490.104980 3478.917236,3490.104980 3437.884521,3490.104980 
	C3436.656982,3500.775146 3434.509033,3510.853760 3434.489014,3520.936768 
	C3434.254150,3639.591553 3434.228760,3758.247559 3434.476807,3876.902344 
	C3434.507568,3891.522705 3437.244629,3905.949463 3443.535645,3919.453125 
	C3449.317871,3931.864502 3458.624268,3940.455566 3471.489014,3944.888184 
	C3495.936523,3953.311279 3519.226562,3950.778564 3541.053223,3936.661377 
	C3546.588379,3933.081787 3551.986328,3929.290283 3558.611572,3924.808838 
	C3561.402100,3931.113770 3563.851074,3936.741211 3566.376709,3942.334473 
	C3572.528809,3955.962402 3578.822998,3969.527588 3584.855957,3983.207764 
	C3589.348877,3993.395996 3587.361816,4001.670654 3578.911865,4008.823730 
	C3566.515381,4019.318115 3552.140869,4026.170166 3536.731201,4030.825928 
	C3497.323975,4042.731934 3457.655762,4044.568604 3418.078369,4032.039551 
	C3376.710693,4018.943848 3351.642334,3990.347656 3342.401611,3948.316895 
	C3339.430908,3934.803467 3337.893799,3920.698242 3337.859863,3906.858398 
	C3337.530273,3772.538574 3337.660156,3638.218018 3337.659180,3503.897461 
	C3337.659180,3499.916992 3337.659180,3495.936523 3337.659180,3490.552246 
	C3326.092773,3490.125977 3314.899414,3490.391113 3303.724854,3490.344238 
	C3292.392822,3490.296875 3281.060303,3490.333740 3269.728027,3490.333740 
	C3258.410645,3490.333740 3247.093506,3490.333740 3236.185059,3490.333740 
	C3235.359131,3489.337158 3234.574951,3488.832764 3234.571533,3488.323486 
	C3234.435791,3467.691162 3234.011475,3447.051514 3234.423828,3426.428467 
	C3234.693604,3412.929932 3241.467773,3406.756348 3255.010986,3406.383545 
	C3264.336182,3406.126953 3273.673828,3406.333252 3284.004883,3406.332520 
z"/>
<path fill="#000001" opacity="1.000000" stroke="none" 
	d="
M2486.138184,1241.832886 
	C2507.581299,1279.428223 2529.488037,1315.944458 2549.721924,1353.365112 
	C2574.235840,1398.700928 2597.376709,1444.780151 2621.012207,1490.589111 
	C2625.583740,1499.449097 2629.517822,1508.638428 2634.107666,1517.488281 
	C2636.002930,1521.142578 2635.898682,1524.008179 2634.020508,1527.668823 
	C2608.968994,1576.490479 2584.540527,1625.637451 2559.039551,1674.221680 
	C2521.004639,1746.684692 2478.857666,1816.804077 2435.567383,1886.216797 
	C2413.384277,1921.785400 2390.230225,1956.748779 2367.503906,1991.978271 
	C2360.468994,2002.883545 2353.251953,2013.674438 2346.410889,2024.699219 
	C2343.496094,2029.396484 2339.853271,2031.561523 2334.273682,2031.754150 
	C2315.021973,2032.418823 2295.786621,2033.544189 2276.538086,2034.320190 
	C2241.686768,2035.725342 2206.840820,2037.541748 2171.973633,2038.215820 
	C2114.396484,2039.328979 2056.805176,2039.770996 1999.217651,2040.278198 
	C1981.240356,2040.436523 1963.253540,2040.047119 1945.277466,2039.630737 
	C1923.680908,2039.130615 1902.083130,2038.525269 1880.500610,2037.616943 
	C1853.636230,2036.486450 1826.785034,2035.038818 1799.932129,2033.648071 
	C1789.330688,2033.098999 1778.746460,2032.194458 1768.142334,2031.726807 
	C1763.017090,2031.500488 1759.522827,2029.375854 1756.727173,2025.090454 
	C1729.999634,1984.120850 1702.040283,1943.905884 1676.616699,1902.145752 
	C1637.374878,1837.688354 1599.482422,1772.397461 1561.759644,1707.032104 
	C1545.150391,1678.251953 1530.077026,1648.567749 1514.831665,1619.022949 
	C1499.885498,1590.057739 1485.604004,1560.749512 1471.039307,1531.587524 
	C1469.567627,1528.640747 1468.156006,1525.663940 1466.479736,1522.213501 
	C1480.778687,1493.428711 1494.905884,1464.425659 1509.550781,1435.686646 
	C1521.325317,1412.580322 1533.311523,1389.561890 1545.939819,1366.915039 
	C1569.253052,1325.106689 1592.193359,1283.047363 1616.955933,1242.100830 
	C1651.031372,1185.754639 1686.592896,1130.305786 1721.650513,1074.556152 
	C1733.162231,1056.249878 1745.218506,1038.286011 1756.729736,1019.979431 
	C1759.552612,1015.490051 1762.940063,1013.798462 1768.086182,1013.580139 
	C1795.281616,1012.426331 1822.462891,1010.946167 1849.653564,1009.674133 
	C1865.909668,1008.913635 1882.169189,1008.152588 1898.435791,1007.701233 
	C1927.356689,1006.898682 1956.281494,1006.159363 1985.209473,1005.707153 
	C2024.477783,1005.093262 2063.751221,1004.384705 2103.021240,1004.452820 
	C2134.277832,1004.507080 2165.541504,1005.390320 2196.785400,1006.411194 
	C2226.319580,1007.376221 2255.838135,1008.880493 2285.351562,1010.380493 
	C2302.237305,1011.238708 2319.091064,1012.714966 2335.976318,1013.580505 
	C2340.954590,1013.835693 2343.718750,1016.200684 2346.262695,1020.124695 
	C2377.031738,1067.585327 2408.244873,1114.761597 2438.640381,1162.459229 
	C2455.074707,1188.248535 2470.164307,1214.894897 2486.138184,1241.832886 
M1850.785522,1301.756348 
	C1842.464966,1310.382446 1833.593262,1318.546387 1825.910400,1327.707275 
	C1761.083130,1405.003784 1739.902710,1493.355347 1761.630249,1591.493164 
	C1775.512817,1654.197632 1807.951050,1706.679565 1856.911621,1748.136230 
	C1933.931152,1813.351562 2022.606812,1834.062988 2120.696533,1812.342041 
	C2183.031738,1798.538574 2234.744141,1765.808960 2276.747559,1717.769897 
	C2305.208740,1685.218994 2325.626953,1648.164917 2337.602539,1606.662476 
	C2347.714355,1571.618652 2351.615479,1535.935547 2348.585693,1499.334229 
	C2346.486328,1473.972656 2341.833252,1449.285645 2333.587891,1425.388550 
	C2315.832520,1373.927734 2285.924072,1330.495361 2244.515625,1295.172974 
	C2212.462158,1267.830566 2176.158936,1248.023926 2135.616455,1236.385010 
	C2100.540039,1226.315308 2064.889404,1222.533203 2028.287598,1225.438965 
	C1991.002686,1228.399048 1955.759277,1237.837769 1922.096558,1253.756958 
	C1896.340332,1265.937134 1873.237915,1282.108032 1850.785522,1301.756348 
z"/>
<path fill="#000000" opacity="1.000000" stroke="none" 
	d="
M2237.338867,2415.342773 
	C2263.501953,2383.448486 2289.947266,2352.675293 2314.769775,2320.644043 
	C2350.821533,2274.122559 2385.815186,2226.777588 2420.927734,2179.536865 
	C2424.989014,2174.072998 2429.491943,2172.196289 2435.784668,2171.587646 
	C2465.465332,2168.718262 2495.153076,2165.850586 2524.766357,2162.371338 
	C2557.360107,2158.542236 2589.932129,2154.437256 2622.408447,2149.726318 
	C2652.269287,2145.394287 2682.103760,2140.696533 2711.746582,2135.087402 
	C2758.978760,2126.149902 2806.042480,2116.322021 2854.125977,2106.680664 
	C2855.205566,2110.085938 2856.683594,2114.050293 2857.720703,2118.126465 
	C2868.613525,2160.936279 2877.264160,2204.210938 2884.167480,2247.831055 
	C2889.400879,2280.898682 2894.625244,2313.971924 2899.335205,2347.116211 
	C2901.525635,2362.531250 2902.597656,2378.111328 2903.979736,2393.634033 
	C2907.223877,2430.071777 2908.989502,2466.586426 2908.282227,2503.167725 
	C2907.207275,2558.757812 2902.036621,2613.853516 2886.168213,2667.449219 
	C2875.512695,2703.439453 2860.821533,2737.524902 2836.208496,2766.448975 
	C2805.954834,2802.000977 2767.939941,2822.464844 2720.933105,2826.480469 
	C2668.458252,2830.963379 2618.543701,2820.207031 2569.647217,2802.918945 
	C2513.842773,2783.188721 2462.338867,2754.917725 2412.866455,2722.699219 
	C2354.784180,2684.872803 2300.293457,2642.388428 2248.748535,2596.126465 
	C2225.245117,2575.031982 2202.359131,2553.248779 2179.232422,2531.735596 
	C2171.206055,2524.269287 2163.298096,2516.675537 2155.101074,2508.917236 
	C2182.637939,2477.602539 2209.766602,2446.751953 2237.338867,2415.342773 
z"/>
<path fill="#000000" opacity="1.000000" stroke="none" 
	d="
M1233.929443,878.118164 
	C1228.605225,849.901489 1222.828857,822.612183 1218.471802,795.098022 
	C1211.938843,753.842712 1205.619995,712.521973 1200.725098,671.050171 
	C1197.617188,644.718994 1197.068481,618.073059 1195.732910,591.550110 
	C1194.914185,575.289062 1193.958862,558.967285 1194.482666,542.718445 
	C1196.303345,486.219788 1200.956665,430.059906 1217.758301,375.610168 
	C1228.643311,340.334961 1243.586182,307.106812 1267.585693,278.665039 
	C1294.962891,246.220291 1328.920288,225.160904 1371.745361,219.641449 
	C1408.497070,214.904709 1444.712891,218.239227 1480.558960,226.453873 
	C1517.953979,235.023499 1553.658081,248.505981 1588.331787,264.865173 
	C1657.630005,297.560455 1720.844482,339.894379 1780.584229,387.437225 
	C1813.849731,413.910919 1846.124512,441.683746 1878.012329,469.815948 
	C1900.456665,489.617096 1921.503906,511.002563 1943.152100,531.704529 
	C1944.825928,533.305054 1946.318970,535.094543 1947.885498,536.784729 
	C1933.751465,552.523682 1919.399048,567.772339 1905.865601,583.716064 
	C1868.018921,628.303345 1829.507690,672.381348 1793.144775,718.158386 
	C1755.093872,766.060242 1719.108887,815.609680 1682.581787,864.707336 
	C1678.104492,870.725525 1673.041382,873.180847 1666.099243,873.693542 
	C1605.220459,878.189087 1544.653564,885.621826 1484.300537,894.528442 
	C1408.450317,905.722168 1333.017700,919.355164 1258.429321,937.330017 
	C1255.532471,938.028137 1252.524414,938.265747 1248.229980,938.922668 
	C1243.511841,918.878052 1238.812012,898.911438 1233.929443,878.118164 
z"/>
<path fill="#000000" opacity="1.000000" stroke="none" 
	d="
M1718.470459,2702.501465 
	C1678.938232,2729.720459 1638.920898,2754.783203 1596.392334,2775.525635 
	C1555.687012,2795.378418 1513.720581,2811.906738 1469.063110,2820.812744 
	C1444.222656,2825.767090 1419.172607,2828.769287 1393.866699,2827.561523 
	C1354.300537,2825.673340 1318.146729,2813.755127 1287.640747,2787.752441 
	C1269.520264,2772.307129 1255.174438,2753.608887 1243.603516,2732.734863 
	C1224.697388,2698.628906 1213.304565,2661.905762 1206.435181,2623.815674 
	C1202.441162,2601.668945 1199.656006,2579.217529 1197.879883,2556.780029 
	C1195.812134,2530.656250 1194.210938,2504.377197 1194.649658,2478.203125 
	C1195.182739,2446.391846 1197.388062,2414.562988 1200.064453,2382.842773 
	C1204.724731,2327.612305 1213.533813,2272.950195 1224.927246,2218.711426 
	C1232.430908,2182.990479 1240.026123,2147.288574 1247.582031,2111.578369 
	C1247.919067,2109.985352 1248.274536,2108.395996 1248.833252,2105.833740 
	C1260.522705,2108.130615 1271.767334,2110.483398 1283.066528,2112.536133 
	C1337.888672,2122.496338 1392.611938,2133.069824 1447.591187,2142.077637 
	C1496.963867,2150.166992 1546.591675,2156.738281 1596.170532,2163.512939 
	C1620.128296,2166.786377 1644.215332,2169.161621 1668.282715,2171.551514 
	C1674.075317,2172.126709 1678.010742,2174.105225 1681.372314,2178.975586 
	C1736.373901,2258.663330 1795.777222,2334.969727 1858.974487,2408.298584 
	C1887.823730,2441.772705 1917.498413,2474.535156 1947.638672,2508.568848 
	C1876.501465,2578.302979 1801.372803,2644.402344 1718.470459,2702.501465 
z"/>
<path fill="#000000" opacity="1.000000" stroke="none" 
	d="
M2853.330811,298.744751 
	C2873.102051,329.300629 2884.994873,362.361969 2893.553955,396.691620 
	C2901.515137,428.621521 2905.882812,461.125610 2908.452637,493.947449 
	C2911.680908,535.181702 2911.404541,576.478149 2909.272949,617.632568 
	C2907.407715,653.645081 2902.565918,689.527527 2898.382568,725.390808 
	C2890.641357,791.757568 2874.448242,856.556885 2861.181396,921.895874 
	C2860.067383,927.383240 2858.697754,932.818787 2857.254395,939.118774 
	C2843.415039,936.386108 2830.174561,933.627197 2816.877930,931.172424 
	C2770.886230,922.681824 2724.979492,913.664734 2678.842529,906.046387 
	C2630.778076,898.109863 2582.538086,891.167847 2534.271240,884.546387 
	C2502.754639,880.222717 2471.064209,877.144836 2439.425537,873.749878 
	C2433.165771,873.078125 2428.720215,871.122925 2424.692139,865.663208 
	C2388.570312,816.703491 2352.777100,767.472107 2315.422363,719.460632 
	C2287.896729,684.082214 2258.572754,650.070984 2229.314209,616.083984 
	C2207.205566,590.402588 2183.930176,565.725952 2161.195557,540.582642 
	C2160.316650,539.610413 2159.661621,538.435364 2158.318359,536.524231 
	C2167.309326,527.744324 2176.039062,518.636353 2185.379639,510.204559 
	C2216.702148,481.929016 2247.648438,453.194061 2279.823975,425.915070 
	C2345.395752,370.322662 2414.520996,319.698853 2490.771484,279.358185 
	C2535.620361,255.630905 2582.069092,236.194550 2631.777344,225.281509 
	C2666.744141,217.604843 2702.078613,214.434937 2737.618896,220.288223 
	C2775.600342,226.543564 2808.135254,243.415329 2833.437988,272.922913 
	C2840.344238,280.977142 2846.447021,289.720612 2853.330811,298.744751 
z"/>
<path fill="#000000" opacity="1.000000" stroke="none" 
	d="
M998.892822,1877.201416 
	C943.369934,1856.286987 889.582581,1833.387939 837.503662,1806.525024 
	C780.266296,1777.001343 725.718018,1743.382202 676.955566,1701.068970 
	C646.143921,1674.332397 618.630737,1644.563599 598.400757,1608.765381 
	C580.675049,1577.398315 570.743103,1544.071777 574.335266,1507.600220 
	C577.087463,1479.656128 586.678101,1453.990723 600.653015,1429.847656 
	C619.877075,1396.636108 645.520996,1368.905396 674.212036,1343.752441 
	C723.081787,1300.909058 778.092163,1267.452637 835.677368,1237.936157 
	C916.377075,1196.572021 1000.712830,1164.284912 1087.234131,1137.493896 
	C1106.238281,1131.609375 1125.298584,1125.906494 1144.973389,1119.925293 
	C1146.508667,1123.913452 1147.979736,1127.203735 1149.059937,1130.617798 
	C1186.191650,1247.980591 1230.575684,1362.579956 1280.343506,1475.124756 
	C1286.122070,1488.192383 1292.033936,1501.212769 1298.345337,1514.027832 
	C1301.225342,1519.875366 1301.153687,1524.962036 1298.406006,1530.806396 
	C1268.278809,1594.885376 1240.590576,1660.018921 1214.780029,1725.947144 
	C1189.936157,1789.406006 1166.993286,1853.535889 1147.526001,1918.873779 
	C1147.058960,1920.441528 1146.347046,1921.936157 1145.292236,1924.634277 
	C1095.922852,1911.172607 1047.647217,1894.722168 998.892822,1877.201416 
z"/>
<path fill="#000000" opacity="1.000000" stroke="none" 
	d="
M3346.849609,1285.136230 
	C3387.637939,1311.324951 3425.394043,1340.151123 3458.322754,1374.908936 
	C3484.376709,1402.410522 3506.428223,1432.613281 3519.536377,1468.600830 
	C3531.637451,1501.823853 3532.638428,1535.332031 3522.351074,1569.242798 
	C3511.405762,1605.322632 3491.462646,1636.036621 3466.627686,1663.886841 
	C3427.681152,1707.562500 3380.907471,1741.453369 3331.208008,1771.580444 
	C3276.483887,1804.753052 3218.816406,1831.990356 3159.650391,1856.229004 
	C3095.913818,1882.339844 3030.632080,1903.858887 2964.515625,1922.970825 
	C2962.366699,1923.591919 2960.108887,1923.836426 2957.511230,1924.330811 
	C2951.593506,1906.537354 2945.838379,1889.237671 2940.086670,1871.936890 
	C2904.935547,1766.197266 2864.103516,1662.675537 2818.622559,1560.971680 
	C2814.144287,1550.957031 2809.555664,1540.984985 2804.723633,1531.137573 
	C2801.901855,1525.386230 2801.727295,1520.263062 2804.477051,1514.173950 
	C2823.076172,1472.985718 2842.254395,1432.019897 2859.413818,1390.230103 
	C2880.991943,1337.679443 2901.499756,1284.660889 2921.160400,1231.361450 
	C2933.918213,1196.774780 2944.335938,1161.325195 2955.815430,1126.266602 
	C2956.403320,1124.471191 2957.116211,1122.716797 2958.088379,1120.082520 
	C3094.223633,1160.056030 3225.965332,1208.813232 3346.849609,1285.136230 
z"/>
<path fill="#010102" opacity="1.000000" stroke="none" 
	d="
M1323.658447,1077.668457 
	C1355.120972,1071.794189 1385.661621,1065.537231 1416.376831,1060.305908 
	C1457.529785,1053.296631 1498.805664,1047.002808 1540.057495,1040.586426 
	C1549.181519,1039.167358 1558.425903,1038.521362 1569.758911,1037.285400 
	C1506.147339,1140.547729 1442.020752,1241.400391 1389.890503,1349.352783 
	C1373.545532,1327.771606 1295.455444,1116.718750 1291.904907,1084.395508 
	C1302.150635,1082.190186 1312.482544,1079.966309 1323.658447,1077.668457 
z"/>
<path fill="#010102" opacity="1.000000" stroke="none" 
	d="
M2559.935547,1070.064453 
	C2552.132080,1058.080933 2544.673340,1046.733032 2536.986084,1035.037231 
	C2560.223145,1034.327759 2739.635498,1063.760498 2814.999268,1081.492432 
	C2806.478027,1111.759399 2795.831055,1141.269897 2785.520264,1170.853027 
	C2775.249756,1200.320923 2764.447021,1229.615356 2753.257324,1258.747559 
	C2741.953369,1288.177368 2729.888184,1317.314941 2717.428711,1348.396606 
	C2711.786133,1338.249268 2706.961182,1329.797852 2702.345459,1321.233765 
	C2678.858887,1277.653931 2656.151123,1233.634521 2631.764404,1190.565430 
	C2608.848389,1150.093872 2584.178711,1110.615356 2559.935547,1070.064453 
z"/>
<path fill="#010102" opacity="1.000000" stroke="none" 
	d="
M2658.049805,1806.057373 
	C2677.737305,1769.810913 2697.073975,1734.212280 2716.441650,1698.556030 
	C2728.560059,1716.534790 2804.328369,1917.583252 2815.061768,1960.542114 
	C2723.423584,1980.275879 2631.149658,1995.823486 2537.427246,2007.991211 
	C2577.846191,1940.346069 2617.772461,1873.525757 2658.049805,1806.057373 
z"/>
<path fill="#010102" opacity="1.000000" stroke="none" 
	d="
M1456.721680,1825.315186 
	C1492.253784,1883.917114 1527.362305,1941.921021 1562.486206,1999.915649 
	C1564.334229,2002.967163 1566.310791,2005.940796 1568.384033,2009.196533 
	C1549.499146,2011.796509 1328.865601,1974.851807 1290.973877,1962.833740 
	C1320.313354,1874.671875 1351.781372,1787.353516 1388.561279,1701.567505 
	C1411.311646,1742.926392 1433.806519,1783.820923 1456.721680,1825.315186 
z"/>
<path fill="#010202" opacity="1.000000" stroke="none" 
	d="
M2073.743164,2373.742188 
	C2066.102295,2382.048096 2058.961914,2389.849609 2051.398193,2398.113281 
	C1989.420898,2329.726318 1929.990723,2260.494629 1874.126587,2186.049805 
	C1992.731689,2189.383301 2109.895996,2189.514648 2228.582275,2185.990967 
	C2222.965088,2193.672607 2218.158691,2200.627441 2212.968506,2207.282715 
	C2169.832031,2262.596436 2124.943604,2316.447754 2078.001465,2368.579346 
	C2076.668457,2370.059570 2075.492920,2371.681641 2073.743164,2373.742188 
z"/>
<path fill="#000101" opacity="1.000000" stroke="none" 
	d="
M1964.266357,746.245972 
	C1993.249634,712.914124 2021.734741,680.087524 2051.037354,646.318909 
	C2113.445068,715.141907 2171.495117,785.785828 2229.075439,859.155579 
	C2110.103516,855.141479 1992.818726,854.997437 1874.093628,859.222656 
	C1902.968018,820.193542 1933.001099,783.184692 1964.266357,746.245972 
z"/>
<path fill="#000001" opacity="1.000000" stroke="none" 
	d="
M868.429443,3588.354248 
	C854.589294,3589.023682 841.666748,3590.156006 828.737122,3590.243408 
	C791.080688,3590.497803 753.421143,3590.421143 715.763306,3590.309326 
	C683.453003,3590.213379 651.143433,3589.889404 618.833496,3589.668701 
	C616.894409,3589.655518 614.955261,3589.667236 612.346008,3589.667236 
	C612.346008,3484.213135 612.346008,3379.468018 612.346008,3273.663330 
	C615.338440,3273.663330 618.229614,3273.663574 621.120850,3273.663574 
	C641.782837,3273.663574 662.446289,3273.818115 683.106567,3273.628662 
	C717.711731,3273.311523 752.335571,3271.836914 786.913086,3272.597900 
	C820.723877,3273.341797 854.735352,3274.349609 888.213135,3278.683594 
	C940.794189,3285.491455 978.772095,3314.504883 1001.965942,3362.337646 
	C1010.457886,3379.850586 1014.687500,3398.468262 1016.475830,3417.891113 
	C1021.055115,3467.625244 1004.615173,3509.563721 969.288757,3543.890625 
	C941.666992,3570.731201 907.896790,3585.298584 868.429443,3588.354248 
z"/>
<path fill="#000101" opacity="1.000000" stroke="none" 
	d="
M1489.999756,3682.332520 
	C1448.728516,3682.332520 1408.457275,3682.332520 1366.904175,3682.332520 
	C1366.740601,3674.613281 1365.925415,3667.671875 1366.559570,3660.865234 
	C1370.188477,3621.915283 1385.486084,3587.871582 1410.718140,3558.165283 
	C1438.578613,3525.364258 1472.801025,3502.219727 1514.448242,3490.716309 
	C1537.385132,3484.380859 1560.715942,3483.348145 1584.496704,3485.266846 
	C1606.912720,3487.075439 1628.505005,3491.372314 1649.335938,3499.716064 
	C1691.614380,3516.650879 1721.410034,3546.534912 1739.933716,3587.789307 
	C1750.633057,3611.617920 1756.686768,3636.711914 1758.368652,3662.830322 
	C1758.750000,3668.754639 1759.475830,3674.656738 1759.994141,3680.059814 
	C1759.157104,3680.878906 1758.929199,3681.123779 1758.677734,3681.341553 
	C1758.434448,3681.553223 1758.167236,3681.908936 1757.910278,3681.909180 
	C1668.940063,3682.066895 1579.969971,3682.199463 1489.999756,3682.332520 
z"/>
<path fill="#000101" opacity="1.000000" stroke="none" 
	d="
M2394.900879,3794.231934 
	C2393.135254,3807.892090 2392.129150,3820.481445 2393.245605,3833.617188 
	C2394.788818,3851.770508 2392.644043,3870.131592 2387.565430,3887.799316 
	C2381.306396,3909.572510 2366.356689,3924.489502 2347.086182,3935.021484 
	C2305.367676,3957.821777 2260.872559,3969.824219 2213.081299,3965.500000 
	C2182.896484,3962.768555 2154.281738,3954.136963 2130.004639,3935.069092 
	C2102.154785,3913.195068 2084.929688,3885.245361 2081.518555,3849.149658 
	C2076.859863,3799.853516 2094.690674,3760.850830 2133.673828,3731.172363 
	C2145.710693,3722.009033 2159.922119,3717.136963 2174.259766,3712.624756 
	C2194.999512,3706.097900 2216.249023,3702.384277 2237.880859,3702.537842 
	C2258.161133,3702.681885 2278.241455,3706.045654 2297.453857,3712.764160 
	C2323.657471,3721.926758 2348.213867,3734.436768 2369.796631,3752.120361 
	C2375.402832,3756.713623 2380.397217,3762.185547 2385.059814,3767.765869 
	C2391.158936,3775.064453 2394.814453,3783.554443 2394.900879,3794.231934 
z"/>
<path fill="#61DAFB" opacity="1.000000" stroke="none" 
	d="
M1851.297852,1301.263916 
	C1873.237915,1282.108032 1896.340332,1265.937134 1922.096558,1253.756958 
	C1955.759277,1237.837769 1991.002686,1228.399048 2028.287598,1225.438965 
	C2064.889404,1222.533203 2100.540039,1226.315308 2135.616455,1236.385010 
	C2176.158936,1248.023926 2212.462158,1267.830566 2244.515625,1295.172974 
	C2285.924072,1330.495361 2315.832520,1373.927734 2333.587891,1425.388550 
	C2341.833252,1449.285645 2346.486328,1473.972656 2348.585693,1499.334229 
	C2351.615479,1535.935547 2347.714355,1571.618652 2337.602539,1606.662476 
	C2325.626953,1648.164917 2305.208740,1685.218994 2276.747559,1717.769897 
	C2234.744141,1765.808960 2183.031738,1798.538574 2120.696533,1812.342041 
	C2022.606812,1834.062988 1933.931152,1813.351562 1856.911621,1748.136230 
	C1807.951050,1706.679565 1775.512817,1654.197632 1761.630249,1591.493164 
	C1739.902710,1493.355347 1761.083130,1405.003784 1825.910400,1327.707275 
	C1833.593262,1318.546387 1842.464966,1310.382446 1851.297852,1301.263916 
z"/>
</svg>